<svg version="1.2" xmlns="http://www.w3.org/2000/svg" xmlns:xlink="http://www.w3.org/1999/xlink" overflow="visible" preserveAspectRatio="none" viewBox="0 0 26 24.000002724474975" width="26" height="24.000002724474975"><g transform="translate(0, 0)"><g transform="translate(0, 0) rotate(0)"><path d="M13,0c-0.42103,0 -0.76172,0.33843 -0.76172,0.75666v2.26997c0,0.41823 0.34069,0.75666 0.76172,0.75666c0.42103,0 0.76172,-0.33843 0.76172,-0.75666v-2.26997c0,-0.41823 -0.34069,-0.75666 -0.76172,-0.75666zM8.96827,4.76159l-1.52344,-1.51331c-0.29758,-0.29555 -0.77959,-0.29555 -1.07712,0c-0.29753,0.29555 -0.29753,0.77441 0,1.06996l1.52344,1.51331c0.29753,0.29555 0.77959,0.29555 1.07712,0c0.29753,-0.29555 0.29753,-0.77441 0,-1.06996zM19.63234,3.24827c-0.29753,-0.29555 -0.77959,-0.29555 -1.07712,0l-1.52344,1.51331c-0.29753,0.29555 -0.29753,0.77441 0,1.06996c0.29753,0.29555 0.77959,0.29555 1.07712,0l1.52344,-1.51331c0.29753,-0.29555 0.29753,-0.77441 0,-1.06996zM25.23828,10.59319h-2.33594v10.59319h2.33594c0.42103,0 0.76172,-0.33843 0.76172,-0.75666v-9.07987c0,-0.41823 -0.34069,-0.75666 -0.76172,-0.75666zM0.76172,10.59319c-0.42103,0 -0.76172,0.33843 -0.76172,0.75666v9.07987c0,0.41823 0.34069,0.75666 0.76172,0.75666h2.33594v-10.59319zM12.4183,11.34984c-0.58099,0 -1.10317,0.32067 -1.36277,0.83646l-2.31862,4.60788c0.38827,0.16919 0.79889,0.25494 1.21845,0.25494c1.15969,0 2.20335,-0.6421 2.7233,-1.6766l0.50136,-0.99606h1.47433c0.40097,0 0.79371,0.16182 1.07712,0.44335l5.64743,5.6099v-9.07987zM14.65435,15.88978h-0.53259l-0.04398,0.08747c-0.71952,1.42937 -2.12271,2.43855 -3.72623,2.56875c-1.17985,0.09589 -1.99748,-0.24127 -2.967,-0.67933c-0.39427,-0.17807 -0.5658,-0.64598 -0.37212,-1.03082l2.67998,-5.3257c0.51614,-1.02572 1.57153,-1.67367 2.72589,-1.67367h3.28722c0.211,-0.46423 0.34135,-0.97104 0.34135,-1.51331c0,-0.41823 -0.34069,-0.75666 -0.76172,-0.75666h-5.91373c-0.86577,0 -1.65714,0.48582 -2.04435,1.25504l-0.68108,1.35315c-0.12909,0.25641 -0.39284,0.41843 -0.68148,0.41843h-1.34342v10.59319h3.49319l2.15795,2.14361c0.62552,0.62137 1.52648,0.81754 2.30374,0.55937l6.50513,-2.03132c0.38878,-0.10871 0.71652,-0.32118 0.98384,-0.59362z" style="stroke-width: 0; stroke-linecap: butt; stroke-linejoin: miter; fill: rgb(0, 214, 168);" vector-effect="non-scaling-stroke"/></g><defs><path id="path-164893312322419561" d="M13,0c-0.42103,0 -0.76172,0.33843 -0.76172,0.75666v2.26997c0,0.41823 0.34069,0.75666 0.76172,0.75666c0.42103,0 0.76172,-0.33843 0.76172,-0.75666v-2.26997c0,-0.41823 -0.34069,-0.75666 -0.76172,-0.75666zM8.96827,4.76159l-1.52344,-1.51331c-0.29758,-0.29555 -0.77959,-0.29555 -1.07712,0c-0.29753,0.29555 -0.29753,0.77441 0,1.06996l1.52344,1.51331c0.29753,0.29555 0.77959,0.29555 1.07712,0c0.29753,-0.29555 0.29753,-0.77441 0,-1.06996zM19.63234,3.24827c-0.29753,-0.29555 -0.77959,-0.29555 -1.07712,0l-1.52344,1.51331c-0.29753,0.29555 -0.29753,0.77441 0,1.06996c0.29753,0.29555 0.77959,0.29555 1.07712,0l1.52344,-1.51331c0.29753,-0.29555 0.29753,-0.77441 0,-1.06996zM25.23828,10.59319h-2.33594v10.59319h2.33594c0.42103,0 0.76172,-0.33843 0.76172,-0.75666v-9.07987c0,-0.41823 -0.34069,-0.75666 -0.76172,-0.75666zM0.76172,10.59319c-0.42103,0 -0.76172,0.33843 -0.76172,0.75666v9.07987c0,0.41823 0.34069,0.75666 0.76172,0.75666h2.33594v-10.59319zM12.4183,11.34984c-0.58099,0 -1.10317,0.32067 -1.36277,0.83646l-2.31862,4.60788c0.38827,0.16919 0.79889,0.25494 1.21845,0.25494c1.15969,0 2.20335,-0.6421 2.7233,-1.6766l0.50136,-0.99606h1.47433c0.40097,0 0.79371,0.16182 1.07712,0.44335l5.64743,5.6099v-9.07987zM14.65435,15.88978h-0.53259l-0.04398,0.08747c-0.71952,1.42937 -2.12271,2.43855 -3.72623,2.56875c-1.17985,0.09589 -1.99748,-0.24127 -2.967,-0.67933c-0.39427,-0.17807 -0.5658,-0.64598 -0.37212,-1.03082l2.67998,-5.3257c0.51614,-1.02572 1.57153,-1.67367 2.72589,-1.67367h3.28722c0.211,-0.46423 0.34135,-0.97104 0.34135,-1.51331c0,-0.41823 -0.34069,-0.75666 -0.76172,-0.75666h-5.91373c-0.86577,0 -1.65714,0.48582 -2.04435,1.25504l-0.68108,1.35315c-0.12909,0.25641 -0.39284,0.41843 -0.68148,0.41843h-1.34342v10.59319h3.49319l2.15795,2.14361c0.62552,0.62137 1.52648,0.81754 2.30374,0.55937l6.50513,-2.03132c0.38878,-0.10871 0.71652,-0.32118 0.98384,-0.59362z" vector-effect="non-scaling-stroke"/></defs></g></svg>