<svg version="1.2" xmlns="http://www.w3.org/2000/svg" xmlns:xlink="http://www.w3.org/1999/xlink" overflow="visible" preserveAspectRatio="none" viewBox="0 0 21.999995 24" width="21.999995" height="24"><g transform="translate(0, 0)"><g transform="translate(0, 3.552713678800501e-15) rotate(0)"><path d="M4.17391,21.88235v-1.41176h2.59933v-2.58132l9.22676,-9.3624v-8.52687h-16v24h16v-7.48706l-5.29155,5.36941c-0.33475,0 -5.54903,0 -6.53454,0zM7.65217,14.82353h-3.47826v-1.41176h3.47826zM13.21739,6.35294h-2.78261v-1.41176h2.78261zM2.78261,2.11765h10.43478v1.41176h-10.43478zM2.78261,4.94118h6.26087v1.41176h-6.26087zM2.78261,7.76471h10.43478v1.41176h-10.43478zM2.78261,10.58824h6.95652v1.41176h-6.95652zM10.1059,20.4706l1.6751,-1.70414l-1.96249,-1.99656l-1.6751,1.70419v1.99652zM10.79722,15.77122l5.88664,-5.98871l1.96221,1.99624l-5.88664,5.98871zM21.59354,6.78726c-0.54194,-0.55134 -1.42059,-0.55134 -1.96249,0l-1.96254,1.99652l1.96249,1.99661l1.96254,-1.99661c0.54194,-0.55134 0.54194,-1.44527 0,-1.99652z" style="stroke-width: 0; stroke-linecap: butt; stroke-linejoin: miter; fill: rgb(0, 214, 168);" vector-effect="non-scaling-stroke"/></g><defs><path id="path-164893312322319555" d="M4.17391,21.88235v-1.41176h2.59933v-2.58132l9.22676,-9.3624v-8.52687h-16v24h16v-7.48706l-5.29155,5.36941c-0.33475,0 -5.54903,0 -6.53454,0zM7.65217,14.82353h-3.47826v-1.41176h3.47826zM13.21739,6.35294h-2.78261v-1.41176h2.78261zM2.78261,2.11765h10.43478v1.41176h-10.43478zM2.78261,4.94118h6.26087v1.41176h-6.26087zM2.78261,7.76471h10.43478v1.41176h-10.43478zM2.78261,10.58824h6.95652v1.41176h-6.95652zM10.1059,20.4706l1.6751,-1.70414l-1.96249,-1.99656l-1.6751,1.70419v1.99652zM10.79722,15.77122l5.88664,-5.98871l1.96221,1.99624l-5.88664,5.98871zM21.59354,6.78726c-0.54194,-0.55134 -1.42059,-0.55134 -1.96249,0l-1.96254,1.99652l1.96249,1.99661l1.96254,-1.99661c0.54194,-0.55134 0.54194,-1.44527 0,-1.99652z" vector-effect="non-scaling-stroke"/></defs></g></svg>