<svg version="1.2" xmlns="http://www.w3.org/2000/svg" xmlns:xlink="http://www.w3.org/1999/xlink" overflow="visible" preserveAspectRatio="none" viewBox="0 0 23.999999999999996 24.000000000000004" width="23.999999999999996" height="24.000000000000004"><g transform="translate(0, 0)"><g transform="translate(-2.4424906541753444e-15, 0) rotate(0)"><path d="M12.8,6.4c-0.4416,0 -0.8,0.3584 -0.8,0.8c0,0.4416 0.3584,0.8 0.8,0.8c1.7648,0 3.2,1.4352 3.2,3.2c0,0.4416 0.3584,0.8 0.8,0.8c0.4416,0 0.8,-0.3584 0.8,-0.8c0,-2.6464 -2.1536,-4.8 -4.8,-4.8zM12.8,3.2c-0.4416,0 -0.8,0.3584 -0.8,0.8c0,0.4416 0.3584,0.8 0.8,0.8c3.5296,0 6.4,2.8704 6.4,6.4c0,0.4416 0.3584,0.8 0.8,0.8c0.4416,0 0.8,-0.3584 0.8,-0.8c0,-4.4112 -3.5888,-8 -8,-8zM12.8,0c-0.4416,0 -0.8,0.3584 -0.8,0.8c0,0.4416 0.3584,0.8 0.8,0.8c5.2944,0 9.6,4.3056 9.6,9.6c0,0.4416 0.3584,0.8 0.8,0.8c0.4416,0 0.8,-0.3584 0.8,-0.8c0,-6.176 -5.0256,-11.2 -11.2,-11.2zM21.6,17.6c-2.3232,0 -4.536,-0.5056 -6.576,-1.5024c-0.192,-0.096 -0.4128,-0.1072 -0.6128,-0.0368c-0.2016,0.0704 -0.3664,0.2176 -0.4592,0.408l-1.2576,2.6032c-3.2544,-1.816 -5.9488,-4.5088 -7.7632,-7.7632l2.6016,-1.2608c0.192,-0.0928 0.3376,-0.2576 0.408,-0.4592c0.0688,-0.2 0.056,-0.4208 -0.0384,-0.6128c-0.9968,-2.04 -1.5024,-4.2528 -1.5024,-6.576c0,-0.4416 -0.3584,-0.8 -0.8,-0.8h-4.8c-0.4416,0 -0.8,0.3584 -0.8,0.8c0,11.9104 9.6896,21.6 21.6,21.6c0.4416,0 0.8,-0.3584 0.8,-0.8v-4.8c0,-0.4416 -0.3584,-0.8 -0.8,-0.8z" style="stroke-width: 0; stroke-linecap: butt; stroke-linejoin: miter; fill: rgb(0, 214, 168);" vector-effect="non-scaling-stroke"/></g><defs><path id="path-164892987806118818" d="M12.8,6.4c-0.4416,0 -0.8,0.3584 -0.8,0.8c0,0.4416 0.3584,0.8 0.8,0.8c1.7648,0 3.2,1.4352 3.2,3.2c0,0.4416 0.3584,0.8 0.8,0.8c0.4416,0 0.8,-0.3584 0.8,-0.8c0,-2.6464 -2.1536,-4.8 -4.8,-4.8zM12.8,3.2c-0.4416,0 -0.8,0.3584 -0.8,0.8c0,0.4416 0.3584,0.8 0.8,0.8c3.5296,0 6.4,2.8704 6.4,6.4c0,0.4416 0.3584,0.8 0.8,0.8c0.4416,0 0.8,-0.3584 0.8,-0.8c0,-4.4112 -3.5888,-8 -8,-8zM12.8,0c-0.4416,0 -0.8,0.3584 -0.8,0.8c0,0.4416 0.3584,0.8 0.8,0.8c5.2944,0 9.6,4.3056 9.6,9.6c0,0.4416 0.3584,0.8 0.8,0.8c0.4416,0 0.8,-0.3584 0.8,-0.8c0,-6.176 -5.0256,-11.2 -11.2,-11.2zM21.6,17.6c-2.3232,0 -4.536,-0.5056 -6.576,-1.5024c-0.192,-0.096 -0.4128,-0.1072 -0.6128,-0.0368c-0.2016,0.0704 -0.3664,0.2176 -0.4592,0.408l-1.2576,2.6032c-3.2544,-1.816 -5.9488,-4.5088 -7.7632,-7.7632l2.6016,-1.2608c0.192,-0.0928 0.3376,-0.2576 0.408,-0.4592c0.0688,-0.2 0.056,-0.4208 -0.0384,-0.6128c-0.9968,-2.04 -1.5024,-4.2528 -1.5024,-6.576c0,-0.4416 -0.3584,-0.8 -0.8,-0.8h-4.8c-0.4416,0 -0.8,0.3584 -0.8,0.8c0,11.9104 9.6896,21.6 21.6,21.6c0.4416,0 0.8,-0.3584 0.8,-0.8v-4.8c0,-0.4416 -0.3584,-0.8 -0.8,-0.8z" vector-effect="non-scaling-stroke"/></defs></g></svg>