<svg version="1.2" xmlns="http://www.w3.org/2000/svg" xmlns:xlink="http://www.w3.org/1999/xlink" overflow="visible" preserveAspectRatio="none" viewBox="0 0 19.99999250942259 24" width="19.99999250942259" height="24"><g transform="translate(0, 0)"><g transform="translate(0, -4.440892098500626e-16) rotate(0)"><path d="M16,5.19v-2.19c0,-1.65 -1.35,-3 -3,-3h-10c-1.65,0 -3,1.35 -3,3v18c0,1.65 1.35,3 3,3h10c1.65,0 3,-1.35 3,-3v-2.69c-0.57,0.45 -1.27,0.69 -2,0.69v2c0,0.55 -0.45,1 -1,1h-10c-0.55,0 -1,-0.45 -1,-1v-18c0,-0.55 0.45,-1 1,-1h0.5c0.55,0 1,0.45 1,1c0,0.55 0.45,1 1,1h5c0.55,0 1,-0.45 1,-1c0,-0.55 0.45,-1 1,-1h0.5c0.55,0 1,0.45 1,1v2c0.68,0 1.35,0.06 2,0.19zM14,13.425c-0.90623,0 -1.67455,0.6765 -1.97288,1.6192l1.06196,1.4333c0.0122,0.0198 0.02439,0.0385 0.03846,0.0572c0.21952,0.2959 0.53755,0.4653 0.87246,0.4653c0.33491,0 0.65294,-0.1694 0.87246,-0.4653c0.01407,-0.0187 0.02721,-0.0374 0.0394,-0.0572l1.06102,-1.4333c-0.29832,-0.9427 -1.06665,-1.6192 -1.97288,-1.6192zM14,9.85c-1.65954,0 -3.14647,0.8855 -4.1362,2.2726l1.16984,1.5796c0.62385,-1.1539 1.71677,-1.9272 2.96635,-1.9272c1.24958,0 2.34156,0.7733 2.96635,1.9272l1.16984,-1.5796c-0.99066,-1.3871 -2.47665,-2.2726 -4.1362,-2.2726zM8.936,10.8697c1.24677,-1.6335 3.05172,-2.6697 5.064,-2.6697c2.01228,0 3.81723,1.0362 5.064,2.6697l0.76363,-1.0307c0.24673,-0.3322 0.22609,-0.8338 -0.04597,-1.1385c-1.55823,-1.7413 -3.61179,-2.7005 -5.78167,-2.7005c-2.16989,0 -4.22344,0.9592 -5.78167,2.7005c-0.27206,0.3036 -0.2927,0.8063 -0.04597,1.1385z" style="stroke-width: 0; stroke-linecap: butt; stroke-linejoin: miter; fill: rgb(0, 214, 168);" vector-effect="non-scaling-stroke"/></g><defs><path id="path-164893312322319557" d="M16,5.19v-2.19c0,-1.65 -1.35,-3 -3,-3h-10c-1.65,0 -3,1.35 -3,3v18c0,1.65 1.35,3 3,3h10c1.65,0 3,-1.35 3,-3v-2.69c-0.57,0.45 -1.27,0.69 -2,0.69v2c0,0.55 -0.45,1 -1,1h-10c-0.55,0 -1,-0.45 -1,-1v-18c0,-0.55 0.45,-1 1,-1h0.5c0.55,0 1,0.45 1,1c0,0.55 0.45,1 1,1h5c0.55,0 1,-0.45 1,-1c0,-0.55 0.45,-1 1,-1h0.5c0.55,0 1,0.45 1,1v2c0.68,0 1.35,0.06 2,0.19zM14,13.425c-0.90623,0 -1.67455,0.6765 -1.97288,1.6192l1.06196,1.4333c0.0122,0.0198 0.02439,0.0385 0.03846,0.0572c0.21952,0.2959 0.53755,0.4653 0.87246,0.4653c0.33491,0 0.65294,-0.1694 0.87246,-0.4653c0.01407,-0.0187 0.02721,-0.0374 0.0394,-0.0572l1.06102,-1.4333c-0.29832,-0.9427 -1.06665,-1.6192 -1.97288,-1.6192zM14,9.85c-1.65954,0 -3.14647,0.8855 -4.1362,2.2726l1.16984,1.5796c0.62385,-1.1539 1.71677,-1.9272 2.96635,-1.9272c1.24958,0 2.34156,0.7733 2.96635,1.9272l1.16984,-1.5796c-0.99066,-1.3871 -2.47665,-2.2726 -4.1362,-2.2726zM8.936,10.8697c1.24677,-1.6335 3.05172,-2.6697 5.064,-2.6697c2.01228,0 3.81723,1.0362 5.064,2.6697l0.76363,-1.0307c0.24673,-0.3322 0.22609,-0.8338 -0.04597,-1.1385c-1.55823,-1.7413 -3.61179,-2.7005 -5.78167,-2.7005c-2.16989,0 -4.22344,0.9592 -5.78167,2.7005c-0.27206,0.3036 -0.2927,0.8063 -0.04597,1.1385z" vector-effect="non-scaling-stroke"/></defs></g></svg>