<svg version="1.2" xmlns="http://www.w3.org/2000/svg" xmlns:xlink="http://www.w3.org/1999/xlink" overflow="visible" preserveAspectRatio="none" viewBox="0 0 20 24.000010000000003" width="20" height="24.000010000000003"><g transform="translate(0, 0)"><g transform="translate(-8.881784197001252e-16, 1.7763568394002505e-15) rotate(0)"><path d="M7.72593,10.31601c-0.43107,0 -0.78049,-0.34844 -0.78049,-0.77832v-0.24843c0,-0.42988 0.34941,-0.77832 0.78049,-0.77832c0.43107,0 0.78049,0.34844 0.78049,0.77832v0.24843c0,0.42988 -0.34941,0.77832 -0.78049,0.77832zM12.27412,9.53769v-0.24843c0,-0.42988 -0.34941,-0.77832 -0.78049,-0.77832c-0.43107,0 -0.78049,0.34844 -0.78049,0.77832v0.24843c0,0.42988 0.34941,0.77832 0.78049,0.77832c0.43107,0 0.78049,-0.34844 0.78049,-0.77832zM20,6.77771c0,0.42954 -0.34927,0.77832 -0.78049,0.77832h-2.60146v1.86846c0,3.52647 -2.73643,6.85895 -7.13852,6.85895c-3.79267,0 -6.87803,-3.0768 -6.87803,-6.85895v-2.56554c0,-3.52647 2.73643,-6.85895 7.13852,-6.85895c3.50097,0 6.39901,2.62148 6.82437,5.99939h2.65512c0.43122,0 0.78049,0.3483 0.78049,0.77832zM8.61905,4.4841c0.26049,0.25976 0.65902,0.29771 0.96,0.11334c0.13317,0.09291 0.28927,0.13912 0.44536,0.13912c0.68863,0 1.04497,-0.83738 0.55171,-1.3285l-0.43902,-0.43781c-0.30439,-0.30403 -0.79902,-0.30403 -1.10341,0l-0.41463,0.41348c-0.30488,0.30355 -0.30488,0.79681 0,1.10035zM15.05709,7.55604h-10.89461v1.86846c0,2.92357 2.38536,5.30231 5.31706,5.30231h0.26049c2.9317,0 5.31706,-2.37874 5.31706,-5.30231zM9.7049,19.35144c1.55239,-0.09641 1.85356,-2.29478 0.71624,-2.29478h-1.62258c-0.32185,0 -0.6018,0.22722 -0.65907,0.54307c-0.1721,0.9496 0.59619,1.81193 1.56541,1.75171zM13.33333,17.05666c-0.38527,0 -0.68361,0.3212 -0.67044,0.70346c0.05946,1.71921 -1.32741,3.15093 -3.05316,3.15093c-1.72429,0 -3.11268,-1.43026 -3.05316,-3.15093c0.01322,-0.38279 -0.28585,-0.70346 -0.6699,-0.70346c-3.24643,0 -5.88667,2.62299 -5.88667,5.86985v0.29518c0,0.42988 0.34941,0.77832 0.78049,0.77832h17.65849c0.43107,0 0.78049,-0.34844 0.78049,-0.77832v-0.29518c0.00005,-3.2418 -2.63526,-5.86985 -5.88613,-5.86985z" style="stroke-width: 0; stroke-linecap: butt; stroke-linejoin: miter; fill: rgb(0, 214, 168);" vector-effect="non-scaling-stroke"/></g><defs><path id="path-164893312322219553" d="M7.72593,10.31601c-0.43107,0 -0.78049,-0.34844 -0.78049,-0.77832v-0.24843c0,-0.42988 0.34941,-0.77832 0.78049,-0.77832c0.43107,0 0.78049,0.34844 0.78049,0.77832v0.24843c0,0.42988 -0.34941,0.77832 -0.78049,0.77832zM12.27412,9.53769v-0.24843c0,-0.42988 -0.34941,-0.77832 -0.78049,-0.77832c-0.43107,0 -0.78049,0.34844 -0.78049,0.77832v0.24843c0,0.42988 0.34941,0.77832 0.78049,0.77832c0.43107,0 0.78049,-0.34844 0.78049,-0.77832zM20,6.77771c0,0.42954 -0.34927,0.77832 -0.78049,0.77832h-2.60146v1.86846c0,3.52647 -2.73643,6.85895 -7.13852,6.85895c-3.79267,0 -6.87803,-3.0768 -6.87803,-6.85895v-2.56554c0,-3.52647 2.73643,-6.85895 7.13852,-6.85895c3.50097,0 6.39901,2.62148 6.82437,5.99939h2.65512c0.43122,0 0.78049,0.3483 0.78049,0.77832zM8.61905,4.4841c0.26049,0.25976 0.65902,0.29771 0.96,0.11334c0.13317,0.09291 0.28927,0.13912 0.44536,0.13912c0.68863,0 1.04497,-0.83738 0.55171,-1.3285l-0.43902,-0.43781c-0.30439,-0.30403 -0.79902,-0.30403 -1.10341,0l-0.41463,0.41348c-0.30488,0.30355 -0.30488,0.79681 0,1.10035zM15.05709,7.55604h-10.89461v1.86846c0,2.92357 2.38536,5.30231 5.31706,5.30231h0.26049c2.9317,0 5.31706,-2.37874 5.31706,-5.30231zM9.7049,19.35144c1.55239,-0.09641 1.85356,-2.29478 0.71624,-2.29478h-1.62258c-0.32185,0 -0.6018,0.22722 -0.65907,0.54307c-0.1721,0.9496 0.59619,1.81193 1.56541,1.75171zM13.33333,17.05666c-0.38527,0 -0.68361,0.3212 -0.67044,0.70346c0.05946,1.71921 -1.32741,3.15093 -3.05316,3.15093c-1.72429,0 -3.11268,-1.43026 -3.05316,-3.15093c0.01322,-0.38279 -0.28585,-0.70346 -0.6699,-0.70346c-3.24643,0 -5.88667,2.62299 -5.88667,5.86985v0.29518c0,0.42988 0.34941,0.77832 0.78049,0.77832h17.65849c0.43107,0 0.78049,-0.34844 0.78049,-0.77832v-0.29518c0.00005,-3.2418 -2.63526,-5.86985 -5.88613,-5.86985z" vector-effect="non-scaling-stroke"/></defs></g></svg>