<svg version="1.2" xmlns="http://www.w3.org/2000/svg" xmlns:xlink="http://www.w3.org/1999/xlink" overflow="visible" preserveAspectRatio="none" viewBox="0 0 23.999984459130992 23.999960455403272" width="23.999984459130992" height="23.999960455403272"><g transform="translate(0, 0)"><g transform="translate(0.000022638893377873587, -0.000009544596729081298) rotate(0)"><path d="M23.92462,10.66777c-0.03788,-0.33732 -0.43136,-0.59109 -0.7716,-0.59109c-1.09958,0 -2.07544,-0.64538 -2.4847,-1.64426c-0.41777,-1.02286 -0.14822,-2.21553 0.67102,-2.96709c0.25803,-0.23592 0.28948,-0.63095 0.07317,-0.90517c-0.56297,-0.71471 -1.20254,-1.36039 -1.90107,-1.91993c-0.27329,-0.21921 -0.67486,-0.18869 -0.91203,0.0738c-0.71524,0.79214 -2.00009,1.08649 -2.99297,0.67226c-1.03284,-0.43457 -1.68477,-1.48152 -1.62073,-2.60527c0.02107,-0.3532 -0.23717,-0.66011 -0.58913,-0.70111c-0.89646,-0.10379 -1.80081,-0.1068 -2.69986,-0.00706c-0.3475,0.0384 -0.60553,0.33805 -0.59401,0.68679c0.03892,1.11275 -0.62037,2.14122 -1.64325,2.56022c-0.98095,0.40074 -2.25687,0.10857 -2.97066,-0.67662c-0.23592,-0.25865 -0.63044,-0.29041 -0.90559,-0.07587c-0.71908,0.56431 -1.37308,1.21042 -1.94124,1.91931c-0.22139,0.27557 -0.1887,0.67496 0.07151,0.9117c0.83543,0.75654 1.10477,1.95948 0.67102,2.99428c-0.41413,0.98654 -1.43847,1.62205 -2.61101,1.62205c-0.3805,-0.01225 -0.6513,0.24339 -0.69334,0.58943c-0.10545,0.90122 -0.1066,1.81998 -0.00509,2.72857c0.03788,0.33878 0.44299,0.59037 0.78696,0.59037c1.04519,-0.02657 2.04804,0.62005 2.46934,1.64416c0.41922,1.02286 0.14936,2.21501 -0.67123,2.9676c-0.25668,0.23592 -0.28948,0.63001 -0.07276,0.90392c0.55726,0.71024 1.19746,1.35635 1.89806,1.92066c0.27505,0.22149 0.67507,0.19046 0.91348,-0.07234c0.71804,-0.794 2.00268,-1.08784 2.99152,-0.67278c1.03585,0.43343 1.68746,1.48027 1.62384,2.60433c-0.02086,0.3532 0.238,0.66105 0.58871,0.70111c0.45876,0.05366 0.91992,0.08023 1.38252,0.08023c0.43904,0 0.87819,-0.02398 1.31734,-0.07286c0.34791,-0.0384 0.60553,-0.33836 0.5938,-0.6872c-0.04017,-1.11223 0.62058,-2.1408 1.64221,-2.55898c0.98749,-0.40333 2.2577,-0.10815 2.9719,0.67589c0.23717,0.25813 0.6293,0.28947 0.90559,0.07577c0.71783,-0.56286 1.37059,-1.20865 1.94124,-1.91942c0.2216,-0.27505 0.19015,-0.67496 -0.07151,-0.91212c-0.83522,-0.75602 -1.10602,-1.95948 -0.67227,-2.99324c0.4077,-0.97325 1.39394,-1.62672 2.4547,-1.62672l0.14842,0.00394c0.34438,0.02792 0.66085,-0.23727 0.70247,-0.5886c0.10597,-0.90205 0.10711,-1.81978 0.00519,-2.72868zM11.99995,18.91815c-3.82093,0 -6.91821,-3.09724 -6.91821,-6.91801c0,-3.82077 3.09739,-6.91801 6.91821,-6.91801c3.82082,0 6.91821,3.09724 6.91821,6.91801c0,1.29687 -0.35757,2.50988 -0.97856,3.54718l-3.0293,-3.02936c0.21931,-0.51709 0.33515,-1.07767 0.33504,-1.6562c0,-1.13288 -0.44122,-2.19789 -1.2424,-2.99885c-0.80097,-0.80096 -1.86599,-1.24207 -2.99868,-1.24207c-0.37801,0 -0.75426,0.05024 -1.11826,0.14936c-0.15943,0.04349 -0.28979,0.17489 -0.33224,0.33462c-0.04339,0.16337 0.0055,0.33078 0.13317,0.45855c0,0 1.49555,1.50705 1.99594,2.00733c0.05242,0.05241 0.05231,0.17748 0.04494,0.22253l-0.00467,0.0329c-0.05044,0.55009 -0.1477,1.21042 -0.22793,1.46419c-0.01079,0.01069 -0.02097,0.01972 -0.03197,0.03072c-0.01152,0.01152 -0.02211,0.02263 -0.03321,0.03404c-0.25709,0.08251 -0.9276,0.18091 -1.48642,0.23094l0.0001,-0.00301l-0.02512,0.00633c-0.00446,0.00052 -0.01277,0.00114 -0.02377,0.00114c-0.06041,0 -0.14925,-0.01692 -0.23001,-0.09756c-0.52083,-0.52083 -1.95774,-1.94744 -1.95774,-1.94744c-0.12891,-0.12849 -0.26114,-0.15548 -0.34926,-0.15548c-0.20541,0 -0.38933,0.14842 -0.44724,0.3613c-0.39555,1.46377 0.02377,3.03829 1.0946,4.10921c0.80118,0.80106 1.8663,1.24218 2.9992,1.24218c0.57854,0 1.13913,-0.11573 1.65612,-0.33504l3.0622,3.06216c-1.07509,0.68793 -2.35174,1.08836 -3.72274,1.08836z" style="stroke-width: 0; stroke-linecap: butt; stroke-linejoin: miter; fill: rgb(0, 214, 168);" vector-effect="non-scaling-stroke"/></g><defs><path id="path-164893312322319559" d="M23.92462,10.66777c-0.03788,-0.33732 -0.43136,-0.59109 -0.7716,-0.59109c-1.09958,0 -2.07544,-0.64538 -2.4847,-1.64426c-0.41777,-1.02286 -0.14822,-2.21553 0.67102,-2.96709c0.25803,-0.23592 0.28948,-0.63095 0.07317,-0.90517c-0.56297,-0.71471 -1.20254,-1.36039 -1.90107,-1.91993c-0.27329,-0.21921 -0.67486,-0.18869 -0.91203,0.0738c-0.71524,0.79214 -2.00009,1.08649 -2.99297,0.67226c-1.03284,-0.43457 -1.68477,-1.48152 -1.62073,-2.60527c0.02107,-0.3532 -0.23717,-0.66011 -0.58913,-0.70111c-0.89646,-0.10379 -1.80081,-0.1068 -2.69986,-0.00706c-0.3475,0.0384 -0.60553,0.33805 -0.59401,0.68679c0.03892,1.11275 -0.62037,2.14122 -1.64325,2.56022c-0.98095,0.40074 -2.25687,0.10857 -2.97066,-0.67662c-0.23592,-0.25865 -0.63044,-0.29041 -0.90559,-0.07587c-0.71908,0.56431 -1.37308,1.21042 -1.94124,1.91931c-0.22139,0.27557 -0.1887,0.67496 0.07151,0.9117c0.83543,0.75654 1.10477,1.95948 0.67102,2.99428c-0.41413,0.98654 -1.43847,1.62205 -2.61101,1.62205c-0.3805,-0.01225 -0.6513,0.24339 -0.69334,0.58943c-0.10545,0.90122 -0.1066,1.81998 -0.00509,2.72857c0.03788,0.33878 0.44299,0.59037 0.78696,0.59037c1.04519,-0.02657 2.04804,0.62005 2.46934,1.64416c0.41922,1.02286 0.14936,2.21501 -0.67123,2.9676c-0.25668,0.23592 -0.28948,0.63001 -0.07276,0.90392c0.55726,0.71024 1.19746,1.35635 1.89806,1.92066c0.27505,0.22149 0.67507,0.19046 0.91348,-0.07234c0.71804,-0.794 2.00268,-1.08784 2.99152,-0.67278c1.03585,0.43343 1.68746,1.48027 1.62384,2.60433c-0.02086,0.3532 0.238,0.66105 0.58871,0.70111c0.45876,0.05366 0.91992,0.08023 1.38252,0.08023c0.43904,0 0.87819,-0.02398 1.31734,-0.07286c0.34791,-0.0384 0.60553,-0.33836 0.5938,-0.6872c-0.04017,-1.11223 0.62058,-2.1408 1.64221,-2.55898c0.98749,-0.40333 2.2577,-0.10815 2.9719,0.67589c0.23717,0.25813 0.6293,0.28947 0.90559,0.07577c0.71783,-0.56286 1.37059,-1.20865 1.94124,-1.91942c0.2216,-0.27505 0.19015,-0.67496 -0.07151,-0.91212c-0.83522,-0.75602 -1.10602,-1.95948 -0.67227,-2.99324c0.4077,-0.97325 1.39394,-1.62672 2.4547,-1.62672l0.14842,0.00394c0.34438,0.02792 0.66085,-0.23727 0.70247,-0.5886c0.10597,-0.90205 0.10711,-1.81978 0.00519,-2.72868zM11.99995,18.91815c-3.82093,0 -6.91821,-3.09724 -6.91821,-6.91801c0,-3.82077 3.09739,-6.91801 6.91821,-6.91801c3.82082,0 6.91821,3.09724 6.91821,6.91801c0,1.29687 -0.35757,2.50988 -0.97856,3.54718l-3.0293,-3.02936c0.21931,-0.51709 0.33515,-1.07767 0.33504,-1.6562c0,-1.13288 -0.44122,-2.19789 -1.2424,-2.99885c-0.80097,-0.80096 -1.86599,-1.24207 -2.99868,-1.24207c-0.37801,0 -0.75426,0.05024 -1.11826,0.14936c-0.15943,0.04349 -0.28979,0.17489 -0.33224,0.33462c-0.04339,0.16337 0.0055,0.33078 0.13317,0.45855c0,0 1.49555,1.50705 1.99594,2.00733c0.05242,0.05241 0.05231,0.17748 0.04494,0.22253l-0.00467,0.0329c-0.05044,0.55009 -0.1477,1.21042 -0.22793,1.46419c-0.01079,0.01069 -0.02097,0.01972 -0.03197,0.03072c-0.01152,0.01152 -0.02211,0.02263 -0.03321,0.03404c-0.25709,0.08251 -0.9276,0.18091 -1.48642,0.23094l0.0001,-0.00301l-0.02512,0.00633c-0.00446,0.00052 -0.01277,0.00114 -0.02377,0.00114c-0.06041,0 -0.14925,-0.01692 -0.23001,-0.09756c-0.52083,-0.52083 -1.95774,-1.94744 -1.95774,-1.94744c-0.12891,-0.12849 -0.26114,-0.15548 -0.34926,-0.15548c-0.20541,0 -0.38933,0.14842 -0.44724,0.3613c-0.39555,1.46377 0.02377,3.03829 1.0946,4.10921c0.80118,0.80106 1.8663,1.24218 2.9992,1.24218c0.57854,0 1.13913,-0.11573 1.65612,-0.33504l3.0622,3.06216c-1.07509,0.68793 -2.35174,1.08836 -3.72274,1.08836z" vector-effect="non-scaling-stroke"/></defs></g></svg>